<svg height="512pt" viewBox="0 0 512 512" width="512pt" xmlns="http://www.w3.org/2000/svg"><path d="m452 0h-392c-33.085938 0-60 26.914062-60 60v392c0 33.085938 26.914062 60 60 60h392c33.085938 0 60-26.914062 60-60v-392c0-33.085938-26.914062-60-60-60zm-392 40h392c11.027344 0 20 8.972656 20 20v140h-432v-140c0-11.027344 8.972656-20 20-20zm392 432h-392c-11.027344 0-20-8.972656-20-20v-212h62v168h40v-168h40v168h40v-168h67v168h40v-168h40v168h40v-168h63v212c0 11.027344-8.972656 20-20 20zm-382-383c0-11.046875 8.953125-20 20-20s20 8.953125 20 20-8.953125 20-20 20-20-8.953125-20-20zm70 0c0-11.046875 8.953125-20 20-20s20 8.953125 20 20-8.953125 20-20 20-20-8.953125-20-20zm0 0"/></svg>